<?xml version="1.0" encoding="utf-8"?>
<!-- Generator: Adobe Illustrator 25.2.3, SVG Export Plug-In . SVG Version: 6.00 Build 0)  -->
<svg version="1.1" id="Layer_1" xmlns="http://www.w3.org/2000/svg" xmlns:xlink="http://www.w3.org/1999/xlink" x="0px" y="0px"
	 viewBox="0 0 612 612" style="enable-background:new 0 0 612 612;" xml:space="preserve">
<style type="text/css">
	.st0{fill:#FFFFFF;stroke:#FFFFFF;stroke-width:0.6764;stroke-miterlimit:10;}
</style>
<path class="st0" d="M188.1,113.9c-4.6-2-6.7-7.4-4.7-12c8.7-19.9,28.3-32.7,50-32.8c4.9,0,9.7,0.7,14.4,2
	c13.9-32.3,51.3-47.1,83.6-33.2c9.4,4.1,17.7,10.3,24.2,18.3c7.3-3.5,15.3-5.3,23.4-5.3c30.1,0,54.6,24.5,54.6,54.6
	c0,5-4.1,9.1-9.1,9.1c-5,0-9.1-4.1-9.1-9.1c0-20-16.2-36.3-36.2-36.4c-7.5,0-14.9,2.3-21,6.6c-4.1,2.9-9.8,1.9-12.7-2.2
	c-0.1-0.2-0.2-0.3-0.3-0.5c-12.9-21.5-40.8-28.5-62.3-15.6c-10.3,6.2-17.8,16.2-20.7,27.9c-1.2,4.9-6.2,7.8-11.1,6.6
	c-0.6-0.2-1.2-0.4-1.8-0.7c-18-8.8-39.8-1.4-48.6,16.6c-0.2,0.4-0.4,0.9-0.6,1.4C198.1,113.8,192.7,115.9,188.1,113.9L188.1,113.9z
	 M415.9,361.7c-10.4,29.6-18.7,53-18.7,80.5c0.1,34.7,4.1,69.2,11.9,102.9c3.4,14.7-5.7,29.4-20.3,32.8c-2,0.5-4.1,0.7-6.2,0.7
	H229.9c-15.1,0-27.3-12.2-27.3-27.3c0-2.1,0.2-4.2,0.7-6.2c7.9-33.8,11.9-68.3,11.9-102.9c0-27.6-8.3-50.9-18.7-80.5
	c-24.8-64.3-36.9-132.7-35.9-201.5c0-15.1,12.2-27.3,27.3-27.3h74.3c14.2,0,25.7,11.5,25.7,25.7c-0.3,10.1,7.2,18.7,17.2,19.7
	c5,0.3,9.9-1.5,13.5-5c3.6-3.4,5.7-8.2,5.7-13.2c0-15.1,12.2-27.3,27.3-27.3s27.3,12.2,27.3,27.3v62.7c-0.2,4.7,3,8.8,7.5,9.9
	c2.7,0.4,5.4-0.3,7.5-2c2-1.7,3.2-4.3,3.2-6.9v-65.2c0-14.2,11.5-25.7,25.7-25.7h1.5c15.1,0,27.3,12.2,27.3,27.3
	C452.8,229,440.6,297.4,415.9,361.7z M398.7,355.6c24-62.3,35.9-128.7,34.9-195.5c0-5-4.1-9.1-9.1-9.1h-1.5c-4.2,0-7.5,3.4-7.6,7.6
	v65.2c0,15.1-12.2,27.3-27.3,27.3c-1.5,0-3.1-0.1-4.6-0.4c-13.3-2.6-22.9-14.3-22.7-27.9v-62.7c0-5-4.1-9.1-9.1-9.1
	s-9.1,4.1-9.1,9.1c0,10-4.1,19.5-11.3,26.4c-7.2,6.9-17,10.5-27,9.9c-19.7-1.5-34.9-18.1-34.4-37.9c0-4.2-3.4-7.5-7.6-7.6h-74.3
	c-5,0-9.1,4.1-9.1,9.1c-0.1,21.3,1,42.5,3.1,63.7h151.5c5,0,9.1,4.1,9.1,9.1s-4.1,9.1-9.1,9.1H184.2c5.7,38.8,15.6,76.9,29.5,113.6
	c10.6,30,19.7,55.9,19.7,86.6c-0.1,36.1-4.2,72-12.4,107.1c-1.1,4.9,1.9,9.8,6.8,10.9c0.7,0.2,1.4,0.2,2.1,0.2h152.6
	c5,0,9.1-4.1,9.1-9.1c0-0.7-0.1-1.4-0.2-2.1c-8.2-35.1-12.3-71-12.4-107.1C379,411.5,388.1,385.6,398.7,355.6z"/>
</svg>
