<?xml version="1.0" encoding="utf-8"?>
<!-- Generator: Adobe Illustrator 25.2.3, SVG Export Plug-In . SVG Version: 6.00 Build 0)  -->
<svg version="1.1" id="Layer_1" xmlns="http://www.w3.org/2000/svg" xmlns:xlink="http://www.w3.org/1999/xlink" x="0px" y="0px"
	 viewBox="0 0 612 612" style="enable-background:new 0 0 612 612;" xml:space="preserve">
<style type="text/css">
	.st0{fill:#FFFFFF;}
</style>
<g transform="translate(0,-952.36218)">
	<path class="st0" d="M306.2,983.4c-9.5,0-17.2,7.7-17.2,17.2v45.8c0,9.5,7.7,17.2,17.2,17.2c9.5,0,17.2-7.7,17.2-17.2v-45.8
		C323.4,991.1,315.7,983.4,306.2,983.4z M144.4,1050.4c-4.4,0-8.8,1.7-12.2,5c-6.7,6.7-6.7,17.6,0,24.3l32.4,32.4
		c6.7,6.7,17.6,6.7,24.3,0c6.7-6.7,6.7-17.6,0-24.3l-32.4-32.4C153.2,1052.1,148.8,1050.4,144.4,1050.4z M468,1050.4
		c-4.4,0-8.8,1.7-12.2,5l-32.4,32.4c-6.7,6.7-6.7,17.6,0,24.3c6.7,6.7,17.6,6.7,24.3,0l32.4-32.4c6.7-6.7,6.7-17.6,0-24.3
		C476.8,1052.1,472.4,1050.4,468,1050.4z M306.2,1086.4c-78.7,0-154.5,61.2-154.5,147.9c0,54,21.4,88.9,40.4,115.9
		c19,26.9,34,45.2,34,73.8v68.7c0,22.6,18.7,40,40,40h80.1c21.3,0,40-17.5,40-40v-68.7c0-28.7,14.9-46.9,34-73.8
		c19-26.9,40.4-61.9,40.4-115.9C460.7,1147.6,384.9,1086.4,306.2,1086.4z M306.2,1120.7c60.9,0,120.1,47.1,120.1,113.5
		c0,45.4-15.8,70.3-34,96c-15.5,21.9-33.9,44.9-39,76.5H259c-5.1-31.6-23.5-54.6-39-76.5c-18.2-25.7-34-50.6-34-96
		C186,1167.7,245.3,1120.7,306.2,1120.7z M279.2,1137.8c-2.4-0.1-5.1,0.2-7.7,0.9c-37.2,14-65.1,46.8-72.2,86.9
		c-1.5,8.9,5.1,18.5,13.9,20c8.9,1.5,18.5-5.2,20-14.1c5-28.1,24.4-51,50.4-60.8c7.5-2.8,12.3-11.3,10.9-19.1
		C292.5,1142,286.5,1138.1,279.2,1137.8z M77.3,1212.2c-9.5,0-17.2,7.7-17.2,17.2c0,9.5,7.7,17.2,17.2,17.2h45.8
		c9.5,0,17.2-7.7,17.2-17.2c0-9.5-7.7-17.2-17.2-17.2H77.3z M489.3,1212.2c-9.5,0-17.2,7.7-17.2,17.2c0,9.5,7.7,17.2,17.2,17.2h45.8
		c9.5,0,17.2-7.7,17.2-17.2c0-9.5-7.7-17.2-17.2-17.2H489.3z M260.4,1441.1H352v11.4h-91.5V1441.1z M260.4,1486.9H352v5.7
		c0,3.7-2.9,5.7-5.7,5.7h-80.1c-2.8,0-5.7-2-5.7-5.7V1486.9z"/>
</g>
</svg>
