<?xml version="1.0" encoding="utf-8"?>
<!-- Generator: Adobe Illustrator 25.2.3, SVG Export Plug-In . SVG Version: 6.00 Build 0)  -->
<svg version="1.1" id="Layer_1" xmlns="http://www.w3.org/2000/svg" xmlns:xlink="http://www.w3.org/1999/xlink" x="0px" y="0px"
	 viewBox="0 0 612 612" style="enable-background:new 0 0 612 612;" xml:space="preserve">
<g>
	<g>
		<path d="M271.8,356.6h68.7c9.8,0,17.7-7.9,17.7-17.7v-51.1c0-9.8-7.9-17.7-17.7-17.7h-68.7c-9.8,0-17.7,7.9-17.7,17.7V339
			C254.2,348.8,262,356.6,271.8,356.6z"/>
		<path d="M409.3,476.4H478c9.8,0,17.7-7.9,17.7-17.7v-51.1c0-9.8-7.9-17.7-17.7-17.7h-68.7c-9.8,0-17.7,7.9-17.7,17.7v51.1
			C391.6,470.5,399.5,476.4,409.3,476.4z"/>
		<path d="M409.3,356.6H478c9.8,0,17.7-7.9,17.7-17.7v-51.1c0-9.8-7.9-17.7-17.7-17.7h-68.7c-9.8,0-17.7,7.9-17.7,17.7V339
			C391.6,348.8,399.5,356.6,409.3,356.6z"/>
		<path d="M134.4,476.4h68.7c9.8,0,17.7-7.9,17.7-17.7v-51.1c0-9.8-7.9-17.7-17.7-17.7h-68.7c-9.8,0-17.7,7.9-17.7,17.7v51.1
			C116.7,470.5,124.6,476.4,134.4,476.4z"/>
		<path d="M134.4,356.6h68.7c9.8,0,17.7-7.9,17.7-17.7v-51.1c0-9.8-7.9-17.7-17.7-17.7h-68.7c-9.8,0-17.7,7.9-17.7,17.7V339
			C116.7,348.8,124.6,356.6,134.4,356.6z"/>
		<path d="M271.8,476.4h68.7c9.8,0,17.7-7.9,17.7-17.7v-51.1c0-9.8-7.9-17.7-17.7-17.7h-68.7c-9.8,0-17.7,7.9-17.7,17.7v51.1
			C254.2,470.5,262,476.4,271.8,476.4z"/>
		<path d="M546.7,30.7H65.7c-19.6,0-35.3,15.7-35.3,33.4v137.4v343.6c0,19.6,15.7,35.3,35.3,35.3h481.1c19.6,0,35.3-15.7,35.3-35.3
			V201.5V64.1C580.1,46.4,564.4,30.7,546.7,30.7z M373.9,99.4c9.8,0,17.7,7.9,17.7,17.7s-7.9,17.7-17.7,17.7
			c-9.8,0-17.7-7.9-17.7-17.7S364.1,99.4,373.9,99.4z M236.5,99.4c9.8,0,17.7,7.9,17.7,17.7s-7.9,17.7-17.7,17.7
			s-17.7-7.9-17.7-17.7S226.7,99.4,236.5,99.4z M546.7,529.4c0,9.8-7.9,17.7-17.7,17.7H81.4c-9.8,0-17.7-7.9-17.7-17.7V201.5h481.1
			v327.9H546.7z"/>
	</g>
</g>
</svg>
