<?xml version="1.0" encoding="utf-8"?>
<!-- Generator: Adobe Illustrator 25.2.3, SVG Export Plug-In . SVG Version: 6.00 Build 0)  -->
<svg version="1.1" id="Layer_1" xmlns="http://www.w3.org/2000/svg" xmlns:xlink="http://www.w3.org/1999/xlink" x="0px" y="0px"
	 viewBox="0 0 612 612" style="enable-background:new 0 0 612 612;" xml:space="preserve">
<style type="text/css">
	.st0{fill:#FFFFFF;stroke:#FFFFFF;stroke-width:0.375;stroke-miterlimit:10;}
	.st1{fill:#FFFFFF;}
</style>
<path class="st0" d="M52.6,270.5l42.7,22c-0.3,4.1-0.5,8.4-0.6,12.9c-0.1,4.3,0,8.7,0.2,13.6l-42.4,21.9c-7.5,3.9-11.2,12.7-8.6,21
	L61,414.4c2.3,7.1,9.2,12.1,16.7,12.1c0.7,0,1.9-0.1,2.6-0.2l45.6-7c4.9,8,10.5,15.6,16.5,22.8l-20.7,41.1
	c-3.8,7.5-1.7,16.6,5.3,22.1l44.8,32.5c6.7,4.8,16.8,3.9,22.6-1.8l33.1-32.7c8.4,3.2,17.2,6,26.2,8.1l7.7,46.8
	c1.6,8.3,8.9,14.2,17.2,14.2h0l55.3,0c8.7,0,16.1-6.5,17.2-14.7l7.9-48.1c8-2.2,16-4.9,24.1-8.2l34.9,34.5
	c5.8,5.8,15.7,6.8,22.7,1.8l45-32.7c6.8-5.2,8.9-14.5,5.1-21.8l-22.4-44.5c5.3-6.4,10.2-13.1,14.7-20l49.2,7.5
	c0.6,0.1,1.7,0.2,2.3,0.2c7.7,0,14.4-4.9,16.8-12.1l17-52.4c2.7-8.1-1-17.2-8.6-21.1l-42.8-22.1c0.4-4.4,0.6-8.7,0.6-12.8
	c0.1-4.6,0-9.1-0.2-13.6l42.2-21.8c7.8-3.9,11.5-13.1,8.7-21.1l-17.1-52.7c-2.4-7.2-9.1-12-16.8-12c-0.7,0-1.9,0.1-2.6,0.2l-45.6,7
	c-4.9-7.9-10.4-15.5-16.4-22.8l20.7-41.1c3.8-7.5,1.6-17-5.3-22.1l-45-32.7c-6.7-4.6-16.3-3.9-22.3,2L384.9,108
	c-8.5-3.3-17.3-6-26.3-8.2l-7.5-46.1c-1.2-8.5-8.7-15-17.3-15h-55.3c-8.4,0-15.6,6-17.3,14.7l-7.8,48.1c-8.2,2.2-16.3,5-24.2,8.2
	l-34.9-34.6c-5.9-5.8-15.6-6.7-22.6-1.7L127,106c-0.2,0.1-0.3,0.2-0.5,0.4c-6.5,5.2-8.5,14.3-4.8,21.7l22.3,44.4
	c-5.3,6.4-10.2,13.1-14.7,20L80,185c-0.6-0.1-1.7-0.2-2.3-0.2c-7.6,0-14.3,4.8-16.8,12.1l-17.1,52.7
	C41.3,257.7,45.1,266.7,52.6,270.5z M84.9,214.1l46.2,7.1c0.7,0.1,2.1,0.2,2.8,0.2c6.5,0,12.7-3.6,15.9-8.9
	c5.6-9.2,12.1-18.1,19.5-26.5c4.8-5.5,5.9-13.8,2.7-20.4l-21.2-42.2l30.2-21.9l33.4,33.1c5.2,4.9,13.9,6.3,20.2,3.5
	c10.2-4.5,20.9-8.1,31.8-10.8c7.1-1.8,12.8-8.1,13.8-15l7.4-45.5h37.3l7.3,44.4c1.4,7.2,7.2,13.1,14.4,14.6
	c11.5,2.4,22.8,5.9,33.6,10.4c6.6,2.7,14.9,1.2,20.2-3.9l31.2-30.9l30.2,21.9l-19.6,39c-3.4,6.7-2.1,15.2,2.7,20.4
	c7.9,8.9,14.9,18.7,20.9,29c3.2,5.6,9.5,9.2,16,9.2c0.7,0,2-0.1,2.7-0.2l43.2-6.6l11.5,35.5l-40.1,20.7c-6.3,3.4-10.4,10.7-9.8,17.8
	c0.4,5.6,0.6,11.5,0.5,17.4c-0.1,5.3-0.4,10.9-1.1,17c-0.8,7.3,3.3,14.8,9.9,18.2l40.6,21l-11.5,35.5l-46.7-7.2
	c-0.6-0.1-1.7-0.1-2.3-0.1c-6.4,0-12.7,3.5-16,8.9c-5.7,9.3-12.2,18.2-19.5,26.4c-4.9,5.5-6,14-2.7,20.5l21.2,42.2l-30.2,21.9
	L398.3,477c-3.3-3.4-8.1-5.4-13-5.4c-2.7,0-5.3,0.6-7.3,1.5c-10.5,4.6-21.2,8.2-31.5,10.7c-7.3,1.6-13.2,8-14.1,15l-7.5,45.5
	l-37.3,0l-7.2-43.8c-1.1-7.5-7.1-13.8-14.4-15.2c-11.7-2.4-23-5.9-33.6-10.4c-2.2-1-4.6-1.4-7.1-1.4c-5.2,0-10.1,2.1-13.1,5.3
	L181,509.8l-30.2-21.9l19.6-38.9c3.3-6.5,2.3-14.6-2.7-20.6c-8-9-15-18.7-21.1-29.3c-3.4-5.4-9.4-8.8-15.8-8.8c-1,0-2,0.1-2.7,0.2
	l-43.2,6.6l-11.5-35.5l39.9-20.6c6.6-3.3,10.6-10.5,10-17.8c-0.5-6.5-0.6-12.1-0.5-17.3c0.1-6.2,0.5-11.8,1.1-17.2
	c0.8-7.4-3.3-14.9-9.8-18.3l-40.6-20.9L84.9,214.1z"/>
<path class="st1" d="M304.1,440.5c72.8,0,134.2-59.2,136.8-131.9c0.1-1.5,0.1-3.8,0.1-5.4c-0.1-73-59.7-132.3-132.7-132.3
	c-74.2,0-135.6,60.4-136.9,134.6c-0.6,36.1,12.9,70,38,95.5C234.4,426.4,268.1,440.5,304.1,440.5z M308.3,198.9
	c57.6,0,104.5,46.8,104.6,104.3c0,1.2,0,3.1-0.1,4.3c-2.1,57.8-50.9,104.8-108.8,104.9c-28.4,0-54.9-11.1-74.7-31.2
	c-19.8-20.1-30.4-46.9-29.9-75.3C200.5,246.9,249.3,198.9,308.3,198.9z"/>
</svg>
