<?xml version="1.0" encoding="utf-8"?>
<!-- Generator: Adobe Illustrator 25.2.3, SVG Export Plug-In . SVG Version: 6.00 Build 0)  -->
<svg version="1.1" id="Layer_1" xmlns="http://www.w3.org/2000/svg" xmlns:xlink="http://www.w3.org/1999/xlink" x="0px" y="0px"
	 viewBox="0 0 612 612" style="enable-background:new 0 0 612 612;" xml:space="preserve">
<style type="text/css">
	.st0{fill:#FFFFFF;}
</style>
<g>
	<path class="st0" d="M307.7,455.5L307.7,455.5c2.2-24.3,18.8-44.7,44.1-54.1c8.3-3.3,16-7.7,22.1-14.3
		c24.3-24.3,24.3-66.2,2.2-103.1l107-107c0.6,0,1.1,0,1.1,0l7.7-1.7c3.3-0.6,6.6-2.2,9.9-3.9l9.4,9.4l0.6,5.5c0,0.6,0,1.1,0.6,1.1
		l6.1,6.1c0.6,0.6,1.7,0.6,2.8,0l10.5-10.5c0.6-0.6,0.6-1.7,0-2.8l-6.1-6.1c-0.6-0.6-0.6-0.6-1.1-0.6l-5.5-0.6l-8.3-8.3l11.6-11.6
		l8.3,8.3l0.6,5.5c0,0.6,0,1.1,0.6,1.1l6.1,6.1c0.6,0.6,1.7,0.6,2.8,0l10.5-10.5c0.6-0.6,0.6-1.7,0-2.8l-6.1-6.1
		c-0.6-0.6-0.6-0.6-1.1-0.6l-5.5-0.6l-8.3-8.3l11.6-11.6l8.3,8.3l0.6,5.5c0,0.6,0,1.1,0.6,1.1l6.1,6.1c0.6,0.6,1.7,0.6,2.8,0
		l10.5-10.5c0.6-0.6,0.6-1.7,0-2.8l-6.1-6.1c-0.6-0.6-0.6-0.6-1.1-0.6l-5.5-0.6l-10.5-7.2c6.1-7.7,5.5-18.8-1.7-25.9l-35.9-35.9
		c-7.2-7.2-18.2-7.7-25.9-1.7l-8.8-8.3l-0.6-5.5c0-0.6,0-1.1-0.6-1.1l-6.1-6.1c-0.6-0.6-1.7-0.6-2.8,0l-10.5,10.5
		c-0.6,0.6-0.6,1.7,0,2.8l6.1,6.1c0.6,0.6,0.6,0.6,1.1,0.6l5.5,0.6l8.3,8.3l-11.6,11.6l-7.7-9.4l-0.6-5.5c0-0.6,0-1.1-0.6-1.1
		l-5.5-6.1c-0.6-0.6-1.7-0.6-2.8,0l-10.5,10.5c-0.6,0.6-0.6,1.7,0,2.8l6.1,6.1c0.6,0.6,0.6,0.6,1.1,0.6l5.5,0.6l8.3,8.3l-11.6,11.6
		l-8.3-8.3l-0.6-5.5c0-0.6,0-1.1-0.6-1.1l-6.1-6.1c-0.6-0.6-1.7-0.6-2.8,0l-9.9,9.4c-0.6,0.6-0.6,1.7,0,2.8l6.1,6.1
		c0.6,0.6,0.6,0.6,1.1,0.6l5.5,0.6l9.4,9.4c-1.7,2.8-3.3,6.1-3.9,9.9l-1.7,7.2c0,0.6,0,1.1,0,1.7l-107.6,107
		c-37-21.5-78.9-22.1-103.1,2.2c-6.1,6.1-11,13.8-14.3,22.1c-9.4,24.8-29.8,41.9-54.1,44.1c-34.7,2.8-66.2,16-84.9,34.7
		C28,379.9,39.6,458.8,95.9,515.1c55.7,55.7,135.1,67.3,177.1,25.9C291.7,521.7,304.4,490.3,307.7,455.5z M495.2,81l34.2,34.2
		L493.6,151c-1.7,1.7-3.9,2.8-6.1,3.3l-7.7,1.7c-2.2,0.6-5,0-6.6-2.2l-17.1-16c-1.7-1.7-2.8-4.4-2.2-6.6l1.7-7.7
		c0.6-2.2,1.7-4.4,3.3-6.1L495.2,81z M440.1,151c0.6,0.6,0.6,1.1,1.1,1.7l17.1,17.1c0.6,0.6,1.1,1.1,1.7,1.1l-96,96
		c-2.8-3.9-6.1-7.2-9.4-10.5c-3.3-3.3-6.6-6.6-10.5-9.4L440.1,151z M110.8,500.2c-48-47.4-59.6-113.6-25.9-147.3
		c15.4-15.4,42.5-26.5,72.3-28.7c32.5-2.8,60.1-24.8,71.7-57.4c2.2-5.5,5-10.5,9.4-14.9c22.6-22.6,68.4-14.3,101.5,19.3
		s41.9,78.9,19.3,101.5c-3.9,3.9-8.8,7.2-14.9,9.4c-32.5,12.1-54.6,39.7-57.4,71.7l0,0c-2.8,29.8-13.2,56.8-28.7,72.3
		C224.4,559.8,158.2,548.2,110.8,500.2z"/>
	<ellipse class="st0" cx="258.7" cy="352.4" rx="40.3" ry="40.3"/>
	<path class="st0" d="M210.1,470.4l-69.5-69.5c-3.9-3.9-10.5-3.9-14.9,0c-3.9,3.9-3.9,10.5,0,14.9l69.5,69.5
		c3.9,3.9,10.5,3.9,14.9,0C213.9,481.4,213.9,474.8,210.1,470.4z"/>
</g>
</svg>
