<?xml version="1.0" encoding="utf-8"?>
<!-- Generator: Adobe Illustrator 25.2.3, SVG Export Plug-In . SVG Version: 6.00 Build 0)  -->
<svg version="1.1" id="Logotype" xmlns="http://www.w3.org/2000/svg" xmlns:xlink="http://www.w3.org/1999/xlink" x="0px" y="0px"
	 viewBox="0 0 411.2 78.3" style="enable-background:new 0 0 411.2 78.3;" xml:space="preserve">
<style type="text/css">
	.st0{fill:#5C5C5C;}
	.st1{fill:#009AFF;}
</style>
<g>
	<g>
		<g>
			<path class="st0" d="M116.4,45.9c-0.7,1.5-1.7,2.7-2.9,3.8c-1.3,1-2.7,1.8-4.4,2.3c-1.7,0.5-3.5,0.8-5.4,0.8H98v10.2h-7.5V28.8
				h13.9c2,0,3.9,0.3,5.5,0.9c1.6,0.6,3,1.4,4.1,2.4c1.1,1,2,2.3,2.6,3.7c0.6,1.4,0.9,3,0.9,4.8v0.1
				C117.5,42.7,117.1,44.4,116.4,45.9z M109.9,40.7c0-1.7-0.5-3-1.6-3.8c-1.1-0.9-2.6-1.3-4.5-1.3H98V46h5.9c1.9,0,3.3-0.5,4.4-1.5
				C109.4,43.5,109.9,42.3,109.9,40.7L109.9,40.7z"/>
			<path class="st0" d="M146.2,55.2c-0.7,1.6-1.7,3.1-3,4.3c-1.3,1.2-2.8,2.2-4.5,2.9c-1.7,0.7-3.6,1.1-5.7,1.1c-2,0-3.9-0.3-5.6-1
				c-1.7-0.7-3.2-1.7-4.5-2.9c-1.3-1.2-2.2-2.6-2.9-4.3c-0.7-1.6-1.1-3.4-1.1-5.3v-0.1c0-1.9,0.4-3.6,1.1-5.3c0.7-1.6,1.7-3.1,3-4.3
				c1.3-1.2,2.8-2.2,4.5-2.9c1.7-0.7,3.6-1.1,5.7-1.1c2,0,3.9,0.3,5.6,1c1.7,0.7,3.2,1.7,4.5,2.9c1.2,1.2,2.2,2.6,2.9,4.3
				c0.7,1.6,1.1,3.4,1.1,5.3v0.1C147.3,51.8,146.9,53.5,146.2,55.2z M140,49.9c0-1-0.2-1.9-0.5-2.8c-0.3-0.9-0.8-1.6-1.4-2.3
				c-0.6-0.7-1.3-1.2-2.2-1.6c-0.8-0.4-1.8-0.6-2.8-0.6c-1.1,0-2,0.2-2.8,0.6c-0.8,0.4-1.5,0.9-2.1,1.5c-0.6,0.7-1,1.4-1.3,2.3
				c-0.3,0.9-0.5,1.8-0.5,2.8v0.1c0,1,0.2,1.9,0.5,2.8c0.3,0.9,0.8,1.6,1.4,2.3c0.6,0.7,1.3,1.2,2.2,1.6c0.8,0.4,1.8,0.6,2.8,0.6
				c1.1,0,2-0.2,2.8-0.6c0.8-0.4,1.5-0.9,2.1-1.5c0.6-0.6,1-1.4,1.3-2.3C139.8,51.9,140,51,140,49.9L140,49.9z"/>
			<path class="st0" d="M179.1,63.1h-6.7l-5-16l-5.1,16h-6.6l-8-26.3h7.5l4.2,15.8l4.9-15.9h6.4l5,16l4.3-15.9h7.4L179.1,63.1z"/>
			<path class="st0" d="M213.3,51.5c0,0.3,0,0.6-0.1,0.9H195c0.4,1.7,1.1,3,2.2,3.8c1.1,0.9,2.5,1.3,4.2,1.3c1.2,0,2.3-0.2,3.3-0.6
				c1-0.4,2-1.1,3-2l4.2,3.8c-1.2,1.5-2.7,2.7-4.5,3.6c-1.8,0.9-3.8,1.3-6.2,1.3c-1.9,0-3.8-0.3-5.4-1c-1.7-0.6-3.1-1.6-4.3-2.8
				c-1.2-1.2-2.2-2.6-2.8-4.3c-0.7-1.6-1-3.5-1-5.5v-0.1c0-1.9,0.3-3.6,0.9-5.3c0.6-1.7,1.5-3.1,2.7-4.3c1.1-1.2,2.5-2.2,4.1-2.9
				c1.6-0.7,3.3-1.1,5.2-1.1c2.2,0,4.1,0.4,5.7,1.2c1.6,0.8,2.9,1.8,4,3.1c1.1,1.3,1.8,2.8,2.3,4.5c0.5,1.7,0.8,3.5,0.8,5.3v0.1
				C213.3,50.9,213.3,51.2,213.3,51.5z M204.3,43.8c-0.9-1-2.2-1.5-3.8-1.5c-1.6,0-2.8,0.5-3.8,1.5c-1,1-1.6,2.4-1.9,4h11.2
				C205.8,46.1,205.3,44.8,204.3,43.8z"/>
			<path class="st0" d="M232.4,44c-2.5,0-4.4,0.7-5.8,2.2c-1.4,1.5-2.1,3.8-2.1,7v9.6H217V36.8h7.4V42c0.7-1.8,1.8-3.2,3.1-4.3
				c1.3-1.1,3.1-1.6,5.3-1.5V44H232.4z"/>
		</g>
		<g>
			<path class="st0" d="M266,62.1c-2.4,1.1-5.2,1.6-8.3,1.6c-2.7,0-5.1-0.4-7.3-1.3c-2.2-0.9-4.1-2.1-5.7-3.7
				c-1.6-1.6-2.8-3.4-3.7-5.6c-0.9-2.1-1.3-4.5-1.3-7V46c0-2.4,0.4-4.7,1.3-6.8c0.9-2.1,2.1-4,3.7-5.6c1.6-1.6,3.5-2.9,5.7-3.8
				c2.2-0.9,4.6-1.4,7.2-1.4c1.5,0,2.9,0.1,4.2,0.3c1.2,0.2,2.4,0.5,3.5,0.9c1.1,0.4,2.1,0.9,3,1.5c0.9,0.6,1.9,1.3,2.7,2l-4.7,5.7
				c-0.7-0.6-1.3-1-1.9-1.5c-0.7-0.4-1.3-0.8-2-1.1c-0.7-0.3-1.5-0.5-2.3-0.7c-0.8-0.2-1.7-0.2-2.7-0.2c-1.4,0-2.6,0.3-3.8,0.9
				c-1.2,0.6-2.2,1.3-3.1,2.3c-0.9,1-1.6,2.1-2.1,3.4c-0.5,1.3-0.8,2.7-0.8,4.1v0.1c0,1.6,0.3,3,0.8,4.3c0.5,1.3,1.2,2.5,2.1,3.4
				c0.9,1,2,1.7,3.3,2.3c1.2,0.5,2.6,0.8,4.2,0.8c2.8,0,5.1-0.7,7.1-2.1v-4.9h-7.6v-6.5h14.8v14.8C270.5,59.8,268.4,61,266,62.1z"/>
			<path class="st0" d="M292.8,44.2c-2.5,0-4.4,0.7-5.8,2.2c-1.4,1.5-2.1,3.8-2.1,7v9.6h-7.4V37h7.4v5.3c0.7-1.8,1.8-3.2,3.1-4.3
				c1.3-1.1,3.1-1.6,5.3-1.5v7.7H292.8z"/>
			<path class="st0" d="M295.7,34.1v-6.6h7.8v6.6H295.7z M295.8,63.1V37h7.4v26.1H295.8z"/>
			<path class="st0" d="M327.3,63.1v-3.7c-0.9,1.2-2,2.2-3.3,3c-1.3,0.8-2.9,1.2-4.8,1.2c-1.5,0-3-0.3-4.4-0.9
				c-1.4-0.6-2.7-1.5-3.8-2.6c-1.1-1.2-2-2.6-2.7-4.2c-0.7-1.7-1-3.6-1-5.8V50c0-2.2,0.3-4.1,1-5.8c0.7-1.7,1.5-3.1,2.6-4.2
				c1.1-1.2,2.3-2,3.8-2.6c1.4-0.6,2.9-0.9,4.5-0.9c2,0,3.6,0.4,4.9,1.2c1.3,0.8,2.4,1.7,3.2,2.7V27.5h7.4v35.6H327.3z M327.4,50
				c0-1.1-0.2-2.1-0.5-3c-0.3-0.9-0.8-1.7-1.4-2.3c-0.6-0.6-1.2-1.1-2-1.5c-0.8-0.3-1.6-0.5-2.5-0.5c-0.9,0-1.7,0.2-2.5,0.5
				c-0.8,0.3-1.4,0.8-2,1.5s-1,1.4-1.4,2.3s-0.5,1.9-0.5,3v0.1c0,1.1,0.2,2.1,0.5,3c0.3,0.9,0.8,1.7,1.4,2.3c0.6,0.6,1.3,1.1,2,1.5
				c0.8,0.3,1.6,0.5,2.5,0.5c0.9,0,1.7-0.2,2.5-0.5c0.8-0.3,1.4-0.8,2-1.5c0.6-0.6,1-1.4,1.4-2.3C327.2,52.2,327.4,51.2,327.4,50
				L327.4,50z"/>
			<path class="st0" d="M368,63.1l-10.6-14.5l-3.9,4.1v10.4H346V29h7.5v14.9L367.3,29h9.1l-13.9,14.5L377,63.1H368z"/>
			<path class="st0" d="M379.2,34.1v-6.6h7.8v6.6H379.2z M379.4,63.1V37h7.4v26.1H379.4z"/>
			<path class="st0" d="M404.1,63.1c-0.9,0.3-2,0.4-3.3,0.4c-1.1,0-2.2-0.1-3.1-0.4s-1.7-0.7-2.4-1.3c-0.7-0.6-1.2-1.4-1.6-2.4
				c-0.4-1-0.6-2.2-0.6-3.8V43.3h-3.1V37h3.1v-6.7h7.4V37h6.1v6.3h-6.1v11.2c0,1.7,0.8,2.5,2.4,2.5c1.3,0,2.5-0.3,3.7-0.9V62
				C405.9,62.5,405,62.8,404.1,63.1z"/>
		</g>
	</g>
	<path class="st1" d="M72.9,33.6c0-0.1,0.1-0.3,0.1-0.4c0.2-3.5-0.1-7.5-5.1-11.6c-0.5-0.4-1.1-0.5-1.6-0.3c-0.3-0.6-0.6-1.3-1-1.9
		c-1.6-2.8-3.1-4.3-4.7-4.5c-0.7-0.1-1.5,0-2.7,0.9c-2.2-2.4-4.7-4.4-7.4-4.2C49.5,11.5,48.1,12,45,15c-2.8-3.2-7-4.9-10.9-4.3
		c-1.1,0.2-2.1,0.4-3.1,0.7c-1.7,0.5-3.2,0.8-5.1,0.7L26,9.4c0-0.9-0.7-1.7-1.7-1.7L12.9,8.2l0,2.7l-6.2,0.1l0.1,2.6l6.2-0.1l0,2.9
		L8.3,17l0.3,2.6l4.4-0.6l0,2.6l9.5-0.7c1.7-0.1,3.1-1.5,3.1-3.3l0-0.7c2.6,0.2,4.6-0.3,6.5-0.8c0.9-0.2,1.7-0.4,2.6-0.6
		c2.7-0.4,5.2,1.1,6.7,2.9c-1.2,1.2-2.1,2.3-2.6,2.8c0,0-0.1,0-0.1,0c-4,0.4-7.5,2.5-9.7,5.8c-3,4.4-2.4,10.3,1.4,14.1
		c0.9,0.9,1,2.2,0.3,3.2L23.1,55c-0.5,0.7-0.4,1.8,0.4,2.3c0.3,0.2,0.6,0.3,1,0.3c0.5,0,1-0.2,1.3-0.7l7.6-10.6
		c1.7-2.3,1.4-5.5-0.6-7.5c-2.7-2.7-3.1-6.8-1-10c1.7-2.5,4.3-4.1,7.3-4.4c3-0.3,5.9,0.8,8,2.9l6.4,6.4c0,0,0,0,0,0c0,0,0,0-0.1,0.1
		c-0.4,0.4-0.7,0.7-1.4,1.3c-2.4,2.4-7.3,0.4-10.5-2.8c-0.6-0.6-1.7-0.6-2.3,0c-0.6,0.6-0.6,1.7,0,2.3c2.2,2.2,4.9,3.8,7.5,4.5
		c0.4,0.1,0.8,0.2,1.1,0.2c-0.1,0.1-0.2,0.2-0.3,0.3l-0.4,0.4c-2.8,2.8-3.3,5.2-1.5,7.9c1.1,1.7,3.1,2.9,5.4,3.2
		c0.4,0.1,0.8,0.1,1.2,0.1c0.1,0,0.1,0,0.2,0c1.3,2.2,3.1,3.5,5.3,4c-3,6.5-8.4,10.9-15.3,12.4c-8.4,1.8-17.7-1.1-24.8-7.7
		c-0.9-0.9-2.4-0.9-3.3,0c-1,1-1,2.6,0,3.6c3.8,3.6,8.3,6.2,13,7.8c3.3,1.1,6.8,1.7,10.1,1.7c2,0,4-0.2,6-0.6
		c9.2-2,16.4-8.4,19.8-17.7c1.3-0.5,2.5-1.2,3.7-2.2c5.6-4.5,8.1-8.4,8.1-12.2C75.1,38,73.6,34.9,72.9,33.6z M43.1,21.5
		c3.4-3.6,6.6-6.5,7.6-6.8c1.4-0.1,3.1,1.4,4.7,3.1c-0.8,0.8-1.6,1.7-2.6,2.8c-1.4,1.6-2.6,3.1-3.5,4.2
		C47.5,23.2,45.4,22.1,43.1,21.5z M51.6,27.2c0.8-1,2-2.5,3.3-4c3.5-4.1,5-4.9,5.3-5.1c0.6,0.3,2.2,2.3,3.5,5.6
		c-1.6,1.7-4,4-5.8,5.7c-0.6,0.6-1.3,1.3-2.1,2.1L51.6,27.2z M48.4,46.2c-0.5-0.8-1.1-1.6,1.1-3.8l0.4-0.4c1.1-1.1,3.5-3.5,5.9-5.9
		c0.3-0.3,0.6-0.6,1.2-1.1c1.2-1.2,2.4-2.4,3.3-3.2c2.1-2.1,5.1-5.1,6.7-6.7c2.6,2.5,2.9,4.9,2.8,7.3c-2.2,2.3-12,12.4-14.5,14.6
		c-1.3,1.1-2.9,1.1-3.7,1C50.2,47.8,49,47.1,48.4,46.2z M64.9,50.1c-2.1,1.7-4.4,2.5-6.3,2.1c-1.1-0.2-2-0.8-2.7-1.7
		c0.5-0.3,1-0.6,1.5-1c2.3-1.9,9.7-9.5,13.2-13.2c0.6,1.3,1.3,3,1.3,4.1C71.8,43.1,69.5,46.3,64.9,50.1z"/>
</g>
</svg>
