<svg xmlns="http://www.w3.org/2000/svg" xmlns:xlink="http://www.w3.org/1999/xlink" version="1.1">
<defs>

</defs>
<symbol xmlns="http://www.w3.org/2000/svg" id="i-cart" viewBox="0 0 15.154 12.376"><path data-name="Path 121" d="M6.485 9.328a1.557 1.557 0 011.582 1.464 1.407 1.407 0 01-1.464 1.582A1.486 1.486 0 015.02 10.91c.045-1.168.746-1.614 1.465-1.582zm6.483 1.517a1.486 1.486 0 00-1.524-1.524 1.407 1.407 0 00-1.524 1.524 1.556 1.556 0 001.524 1.524c.716.06 1.434-.358 1.523-1.527zm2.16-8.009l-.047.353q-.044.322-.1.643-.118.755-.262 1.505a24.8 24.8 0 01-.69 2.914.343.343 0 01-.32.243l-.617.03c-1.322.066-2.644.147-3.967.2a45.324 45.324 0 01-3.256.025 28.09 28.09 0 01-.911-.038 1.474 1.474 0 01-.639-.157 1.332 1.332 0 01-.447-.459 6.245 6.245 0 01-.6-1.343c-.382-1.1-.641-2.237-.953-3.357a19.757 19.757 0 00-.508-1.615 10.098 10.098 0 00-.134-.342l-.013-.03-.039-.088c-.024-.052-.048-.1-.073-.156a4.792 4.792 0 00-.209-.386 7.093 7.093 0 01-1.1-.136.336.336 0 01-.232-.408.34.34 0 01.408-.232l.322.055.131.021.069.01h.024c.1.012.209.021.315.024.151 0 .318-.032.446.068a1.187 1.187 0 01.245.346 6.308 6.308 0 01.342.713c.068.162.131.327.19.493h.354l4.2.035 4.161.035 2.1.017c.353 0 .706 0 1.059.009a.814.814 0 01.561.187.754.754 0 01.216.519 1.56 1.56 0 01-.026.302zm-10.5 5.136l-.031-.024a.1.1 0 00.036.025zm9.852-5.446a.045.045 0 000 .021.1.1 0 01.005-.02z" fill="currentColor"/></symbol>
<symbol xmlns="http://www.w3.org/2000/svg" id="i-feed" viewBox="0 0 38.172 37.771"><g data-name="Group 164" fill="currentColor"><path data-name="Path 124" d="M15.657 29.947a7.525 7.525 0 00-7.819-7.82c-4.112.252-8.143 3.462-7.819 7.82.32 4.306 3.11 7.659 7.819 7.819 4.315.148 7.531-2.698 7.819-7.819z"/><path data-name="Path 125" d="M25.574 34.447h-.062a1.656 1.656 0 01-1.594-1.714 18.755 18.755 0 00-5.289-13.2c-3.123-3.405-7.663-5-13.214-5.293a1.694 1.694 0 01-1.7-1.6 1.654 1.654 0 011.6-1.7c5.912-.177 12.543 2.59 15.662 6.269 3.834 4.524 6.457 9.912 6.249 15.652a1.656 1.656 0 01-1.652 1.586z"/><path data-name="Path 126" d="M36.492 34.446h-.075a1.655 1.655 0 01-1.579-1.728c.329-7.357-2.948-14.613-8.309-20.549-4.548-5.037-12.451-8.4-21.115-8.847a1.7 1.7 0 01-1.7-1.608 1.655 1.655 0 011.608-1.7 32.082 32.082 0 0123.569 9.835 31.188 31.188 0 019.255 23.018 1.656 1.656 0 01-1.654 1.579z"/></g></symbol>
<symbol xmlns="http://www.w3.org/2000/svg" id="i-logo" viewBox="0 0 400 65.31"><g data-name="Group 55"><g data-name="Group 54" fill="#5c5c5c"><g data-name="Group 52"><path data-name="Path 30" d="M109.482 32.182a10.643 10.643 0 01-2.949 3.754 12.787 12.787 0 01-4.387 2.266 18.594 18.594 0 01-5.388.755h-5.7v10.238H83.55V15.067h13.943a16.41 16.41 0 015.485.854 11.645 11.645 0 014.095 2.413 10.568 10.568 0 012.58 3.733 12.412 12.412 0 01.9 4.8v.1a11.971 11.971 0 01-1.071 5.215zm-6.533-5.168a4.655 4.655 0 00-1.633-3.852 6.912 6.912 0 00-4.46-1.316h-5.8v10.432h5.947a6.1 6.1 0 004.387-1.487 4.881 4.881 0 001.56-3.681z"/><path data-name="Path 31" d="M139.269 41.472a13.484 13.484 0 01-2.974 4.314 14.083 14.083 0 01-4.485 2.925 14.619 14.619 0 01-5.655 1.073 14.772 14.772 0 01-5.606-1.048 13.688 13.688 0 01-4.461-2.876 13.388 13.388 0 01-2.949-4.29 13.089 13.089 0 01-1.073-5.29v-.1a13.088 13.088 0 011.073-5.289 13.483 13.483 0 012.974-4.315 14.1 14.1 0 014.484-2.925 14.615 14.615 0 015.655-1.072 14.785 14.785 0 015.607 1.048 13.7 13.7 0 014.46 2.876 13.418 13.418 0 012.95 4.29 13.108 13.108 0 011.072 5.29v.1a13.1 13.1 0 01-1.072 5.289zm-6.24-5.29a7.755 7.755 0 00-.487-2.754 6.921 6.921 0 00-3.608-3.876 6.55 6.55 0 00-2.779-.585 6.9 6.9 0 00-2.852.56 6.321 6.321 0 00-2.12 1.536 6.769 6.769 0 00-1.341 2.267 8.1 8.1 0 00-.462 2.755v.1a7.73 7.73 0 00.487 2.755 6.991 6.991 0 003.583 3.876 6.512 6.512 0 002.8.585 6.862 6.862 0 002.852-.561 6.3 6.3 0 002.122-1.535 6.782 6.782 0 001.34-2.268 8.106 8.106 0 00.463-2.754z"/><path data-name="Path 32" d="M172.242 49.391h-6.679l-5.022-16.038-5.118 16.038h-6.63l-8.044-26.325h7.507l4.193 15.843 4.923-15.941h6.386l4.972 15.99 4.29-15.892h7.361z"/><path data-name="Path 33" d="M206.382 37.788c-.017.26-.042.569-.074.926h-18.183a6.241 6.241 0 002.218 3.828 6.638 6.638 0 004.168 1.292 8.25 8.25 0 003.315-.634 11.237 11.237 0 003.022-2.048l4.242 3.755a13.16 13.16 0 01-4.485 3.583 13.918 13.918 0 01-6.191 1.292 14.892 14.892 0 01-5.436-.975 12.571 12.571 0 01-4.339-2.779 12.84 12.84 0 01-2.851-4.266 14.127 14.127 0 01-1.025-5.484v-.1a14.617 14.617 0 01.951-5.265 13.41 13.41 0 012.657-4.339 12.389 12.389 0 019.312-4 12.719 12.719 0 015.655 1.17 11.5 11.5 0 013.974 3.144 13.09 13.09 0 012.34 4.533 18.778 18.778 0 01.756 5.339v.1c-.002.359-.007.667-.026.928zm-8.946-7.727a4.858 4.858 0 00-3.754-1.535 4.975 4.975 0 00-3.781 1.51 7.574 7.574 0 00-1.877 4.047h11.167a7.221 7.221 0 00-1.755-4.023z"/><path data-name="Path 34" d="M225.506 30.328a7.635 7.635 0 00-5.825 2.243q-2.121 2.244-2.12 6.972v9.653h-7.41v-26.13h7.41v5.265a10.854 10.854 0 013.071-4.29 7.47 7.47 0 015.265-1.462v7.75z"/></g><g data-name="Group 53"><path data-name="Path 35" d="M259.15 48.392a20.618 20.618 0 01-8.312 1.584 19.458 19.458 0 01-7.288-1.316 16.811 16.811 0 01-5.655-3.657 16.528 16.528 0 01-3.681-5.558 18.361 18.361 0 01-1.316-7.02v-.1a17.444 17.444 0 0110.725-16.258 18.109 18.109 0 017.166-1.389 25.169 25.169 0 014.169.316 19.929 19.929 0 013.485.9 16.156 16.156 0 013.022 1.462 22.55 22.55 0 012.73 2l-4.728 5.7a19.2 19.2 0 00-1.951-1.463 12.806 12.806 0 00-2.022-1.072 11.911 11.911 0 00-2.268-.682 13.715 13.715 0 00-2.681-.244 8.729 8.729 0 00-3.827.856 10.309 10.309 0 00-3.12 2.3 10.516 10.516 0 00-2.1 3.371 11.215 11.215 0 00-.755 4.129v.1a12.011 12.011 0 00.755 4.324 10.255 10.255 0 002.146 3.445 9.747 9.747 0 003.266 2.272 10.432 10.432 0 004.168.805 11.815 11.815 0 007.069-2.061v-4.909h-7.556v-6.484h14.819v14.824a24.994 24.994 0 01-6.26 3.825z"/><path data-name="Path 36" d="M286.016 30.523a7.636 7.636 0 00-5.825 2.243q-2.121 2.244-2.121 6.972v9.652h-7.405V23.26h7.41v5.265a10.855 10.855 0 013.071-4.29 7.474 7.474 0 015.265-1.463v7.751z"/><path data-name="Path 37" d="M288.838 20.384v-6.582h7.8v6.582zm.195 29.006V23.261h7.41V49.39z"/><path data-name="Path 38" d="M320.462 49.39v-3.724a11.7 11.7 0 01-3.29 3.023 9.108 9.108 0 01-4.85 1.186 11.617 11.617 0 01-4.437-.878 10.972 10.972 0 01-3.8-2.608 12.967 12.967 0 01-2.657-4.242 15.521 15.521 0 01-1-5.777v-.1a15.529 15.529 0 011-5.777 13.2 13.2 0 012.632-4.241 10.734 10.734 0 013.779-2.609 11.747 11.747 0 014.485-.878 9.376 9.376 0 014.9 1.161 13.112 13.112 0 013.241 2.709v-12.84h7.41v35.588zm.1-13.113a8.306 8.306 0 00-.512-2.969 7.345 7.345 0 00-1.365-2.307 6.042 6.042 0 00-6.922-1.473 6.137 6.137 0 00-2.023 1.473 7.141 7.141 0 00-1.39 2.282 8.259 8.259 0 00-.511 2.994v.1a8.312 8.312 0 00.511 2.97 7.09 7.09 0 001.39 2.307 6.113 6.113 0 002.023 1.472 5.966 5.966 0 006.922-1.472 7.345 7.345 0 001.365-2.307 8.307 8.307 0 00.512-2.97z"/><path data-name="Path 39" d="M361.213 49.39l-10.576-14.523-3.949 4.095v10.432h-7.507V15.267h7.507v14.918l13.846-14.918h9.068l-13.894 14.479 14.527 19.646z"/><path data-name="Path 40" d="M372.482 20.384v-6.582h7.8v6.582zm.194 29.006V23.261h7.41V49.39z"/><path data-name="Path 41" d="M397.32 49.415a11.69 11.69 0 01-3.266.414 12.188 12.188 0 01-3.1-.365 5.522 5.522 0 01-2.389-1.292 6.2 6.2 0 01-1.56-2.414 10.818 10.818 0 01-.56-3.779V29.598h-3.12v-6.337h3.12v-6.68h7.41v6.68h6.143v6.337h-6.143v11.164q0 2.535 2.389 2.535a7.544 7.544 0 003.656-.927v5.948a11.56 11.56 0 01-2.58 1.097z"/></g></g><path data-name="Path 42" d="M66.189 25.785a1.629 1.629 0 00.071-.394c.178-3.463-.054-7.5-5.091-11.622a1.636 1.636 0 00-1.618-.261 31.74 31.74 0 00-.974-1.942c-1.57-2.85-3.061-4.292-4.691-4.54a3.72 3.72 0 00-2.751.869c-2.224-2.379-4.661-4.383-7.439-4.2-.929.06-2.254.571-5.426 3.523a12.452 12.452 0 00-10.927-4.27 29.964 29.964 0 00-3.082.681 13.786 13.786 0 01-5.08.656l.1-2.622a1.6 1.6 0 00-1.66-1.659L6.151.421l.045 2.733-6.191.142.06 2.614 6.174-.142.049 2.909-4.684.6.333 2.593 4.394-.564.043 2.569 9.464-.7a3.4 3.4 0 003.143-3.261l.026-.726a18.708 18.708 0 006.494-.816 25.768 25.768 0 012.587-.579 7.643 7.643 0 016.7 2.894 123.19 123.19 0 00-2.578 2.789l-.121.01a13.218 13.218 0 00-9.727 5.811 11.171 11.171 0 001.379 14.1 2.5 2.5 0 01.263 3.246l-7.618 10.572a1.635 1.635 0 002.655 1.909l7.614-10.579a5.758 5.758 0 00-.605-7.466 7.9 7.9 0 01-.975-9.964 10 10 0 0115.366-1.5l6.375 6.371-.043.042-.058.058c-.359.354-.724.715-1.352 1.343-2.385 2.383-7.321.4-10.528-2.8a1.635 1.635 0 10-2.313 2.311 16.823 16.823 0 007.481 4.47 11.22 11.22 0 001.143.233l-.266.266-.391.391c-2.8 2.8-3.278 5.241-1.538 7.908a7.755 7.755 0 005.384 3.207 8.709 8.709 0 001.243.09h.214a8.157 8.157 0 005.256 4.037 21.337 21.337 0 01-15.284 12.359c-8.416 1.785-17.721-1.147-24.77-7.687a2.452 2.452 0 00-3.34 3.591 36.111 36.111 0 0013.006 7.826 31.81 31.81 0 0010.124 1.687 28.89 28.89 0 006-.621c9.251-1.962 16.445-8.4 19.776-17.685a14.015 14.015 0 003.691-2.171c5.558-4.477 8.146-8.366 8.146-12.238-.003-2.414-1.516-5.522-2.208-6.818zM36.366 13.76c3.375-3.614 6.589-6.527 7.584-6.809 1.443-.06 3.134 1.407 4.7 3.068a50.56 50.56 0 00-2.638 2.843 101.596 101.596 0 00-3.465 4.237 13.217 13.217 0 00-6.181-3.339zm8.512 5.666c.752-.975 1.951-2.5 3.269-4.038 3.542-4.136 4.988-4.946 5.347-5.1.626.3 2.2 2.267 3.522 5.569a541.182 541.182 0 01-5.766 5.744 442.11 442.11 0 00-2.112 2.078zm-3.187 18.989c-.549-.841-1.068-1.636 1.111-3.812l.391-.392a2694.677 2694.677 0 017.045-7.022c1.251-1.24 2.422-2.4 3.3-3.249 2.11-2.058 5.085-5.054 6.67-6.656a8.757 8.757 0 012.814 7.334c-2.167 2.264-11.967 12.449-14.498 14.597a4.678 4.678 0 01-3.717.966 4.524 4.524 0 01-3.116-1.766zm16.5 3.87c-2.086 1.682-4.447 2.461-6.315 2.084a4.582 4.582 0 01-2.7-1.706 7.326 7.326 0 001.463-.964c2.27-1.924 9.661-9.543 13.226-13.244a11.765 11.765 0 011.258 4.136c.001 2.771-2.268 5.942-6.927 9.698z" fill="#009aff"/></g></symbol>
</svg>
