<?xml version="1.0" encoding="utf-8"?>
<!-- Generator: Adobe Illustrator 25.2.3, SVG Export Plug-In . SVG Version: 6.00 Build 0)  -->
<svg version="1.1" id="Layer_1" xmlns="http://www.w3.org/2000/svg" xmlns:xlink="http://www.w3.org/1999/xlink" x="0px" y="0px"
	 viewBox="0 0 612 612" style="enable-background:new 0 0 612 612;" xml:space="preserve">
<style type="text/css">
	.st0{fill:#FFFFFF;}
</style>
<g>
	<path class="st0" d="M306.2,21.8c-59.3,0-107.5,48.2-107.5,107.5v161.3c0,59.3,48.2,107.6,107.5,107.6s107.6-48.4,107.6-107.6
		V129.3C413.8,70,365.4,21.8,306.2,21.8z M306.2,57.3c40.2,0,72.2,31.8,72.2,72v161.3c0,40.2-31.9,72.2-72.2,72.2
		c-40.2,0-72-31.9-72-72.2V129.3C234.2,89.1,265.9,57.3,306.2,57.3z M279.7,124.5c-9.8,0.7-17.1,9.2-16.4,19
		c0.7,9.5,8.7,16.7,18.2,16.5h49.4c9.8,0.2,17.9-7.5,18.1-17.3c0.2-9.8-7.5-17.9-17.3-18.1c-0.3,0-0.5,0-0.8,0h-49.4
		C281,124.4,280.3,124.4,279.7,124.5z M279.7,192.3c-9.8,0.7-17.1,9.2-16.4,19c0.7,9.5,8.7,16.7,18.2,16.5h49.4
		c9.8,0.2,17.9-7.5,18.1-17.3c0.2-9.8-7.5-17.9-17.3-18.1c-0.3,0-0.5,0-0.8,0h-49.4C281,192.3,280.3,192.3,279.7,192.3z
		 M279.7,260.1c-9.8,0.7-17.1,9.2-16.4,19c0.7,9.5,8.7,16.7,18.2,16.5h49.4c9.8,0.2,17.9-7.5,18.1-17.3c0.2-9.8-7.5-17.9-17.3-18.1
		c-0.3,0-0.5,0-0.8,0h-49.4C281,260.1,280.3,260.1,279.7,260.1z M457.1,284.4c-9.2,0.2-16.7,7.5-17.3,16.7
		c-5.5,68.4-64,123.7-133.7,123.7s-128.1-55.3-133.6-123.7c-0.6-9.8-9.1-17.2-18.9-16.5c-0.2,0-0.3,0-0.5,0
		c-9.8,0.9-17,9.5-16.1,19.2c0,0,0,0.1,0,0.1c6.4,81,71,146.9,151.4,155.4V554h-61.4c-0.6,0-1.2,0-1.8,0c-9.8,0.7-17.1,9.2-16.4,19
		c0.7,9.5,8.7,16.7,18.2,16.5h158.3c9.8,0.2,17.9-7.6,18.1-17.3c0.2-9.8-7.6-17.9-17.3-18.1c-0.3,0-0.5,0-0.8,0H324v-94.6
		c80.3-8.6,144.8-74.4,151.2-155.4c1-9.7-6.1-18.5-15.8-19.5C458.7,284.4,457.9,284.4,457.1,284.4z"/>
</g>
</svg>
