<?xml version="1.0" encoding="utf-8"?>
<!-- Generator: Adobe Illustrator 25.2.0, SVG Export Plug-In . SVG Version: 6.00 Build 0)  -->
<svg version="1.1" id="Layer_1" xmlns="http://www.w3.org/2000/svg" xmlns:xlink="http://www.w3.org/1999/xlink" x="0px" y="0px"
	 viewBox="0 0 403.39 398.98" style="enable-background:new 0 0 403.39 398.98;" xml:space="preserve">
<style type="text/css">
	.st0{fill:#FFFFFF;}
</style>
<g>
	<g>
		<g>
			<path class="st0" d="M202.86,395.06c-106.83,0-193.75-86.91-193.75-193.75S96.03,7.57,202.86,7.57S396.6,94.48,396.6,201.31
				S309.69,395.06,202.86,395.06z M165.07,370.01c3.73,0.46,7.22,0.7,10.38,0.7c0.79,0,1.54-0.01,2.27-0.04
				c6.63-0.11,10.46-0.16,10.46-0.16l0.38-7.17c0,0-3.81-0.46-10.47-1.23l-0.18-0.02c-3.3-0.22-7.09-0.83-11.25-1.82l-1.46-0.3
				c-4.04-0.82-8.63-1.74-13.3-3.27l-2.32-0.68c-1.98-0.58-4-1.17-6.07-1.78l-8.67-3.51l-0.09-0.03c-3.46-1.19-6.87-2.98-10.48-4.88
				c-2.33-1.22-4.74-2.49-7.26-3.64c-1.65-1.06-3.36-2.11-5-3.12c-4.21-2.58-8.57-5.25-12.42-8.47l-0.12-0.1l-0.13-0.09
				c-4.41-3.08-8.36-6.77-12.54-10.67c-1.27-1.18-2.54-2.37-3.82-3.54c-1.13-1.24-2.28-2.46-3.42-3.68
				c-3.95-4.22-7.69-8.21-10.8-12.66l-0.09-0.13l-0.1-0.12c-3.23-3.86-5.91-8.22-8.5-12.45c-1.01-1.64-2.04-3.33-3.1-4.98
				c-1.16-2.53-2.43-4.94-3.66-7.28c-1.9-3.6-3.69-7-4.88-10.45l-0.05-0.14l-0.06-0.14c-2.51-5.72-4.47-11.32-5.82-16.65l-0.03-0.12
				l-0.04-0.12c-1.52-4.66-2.44-9.19-3.25-13.19l-0.32-1.53c-0.98-4.09-1.61-7.99-1.81-11.26l-0.02-0.19
				c-0.78-6.67-1.23-10.48-1.23-10.48l-7.17,0.37c0,0-0.06,3.83-0.16,10.56c-0.16,3.62,0.07,7.88,0.67,12.56l0.05,0.53
				c0.42,4.66,0.89,9.94,2.39,15.55c1.11,5.89,2.84,12.08,5.14,18.41c1.45,5.15,3.72,9.97,6.13,15.07c0.73,1.55,1.47,3.12,2.19,4.71
				l0.09,0.21l0.12,0.19c1.03,1.68,2.03,3.39,3.04,5.12c2.76,4.72,5.61,9.59,9.22,14.15c3.51,5.2,7.75,9.91,11.84,14.47
				c1.1,1.23,2.21,2.46,3.3,3.7l0.15,0.17l0.17,0.15c1.18,1.04,2.34,2.09,3.51,3.14c4.62,4.15,9.38,8.43,14.66,11.99
				c4.54,3.6,9.41,6.43,14.12,9.17c1.8,1.04,3.49,2.03,5.18,3.06l0.19,0.12l0.2,0.09c1.6,0.72,3.18,1.47,4.74,2.21
				c5.1,2.41,9.93,4.69,15.1,6.13c3.15,1.04,6.21,2.06,9.18,3.02l0.16,0.05l3.33,0.75c1.92,0.43,3.79,0.85,5.62,1.27
				c5.62,1.5,10.86,1.97,15.49,2.39L165.07,370.01z M145.42,338.17c3.92,1.42,7.71,1.58,10.77,1.71l0.54,0.02l8.02,0.46
				c4.46,0.26,7,0.4,7,0.4l0.72-7.16c0,0-2.48-0.36-6.82-0.98c-1.65-0.36-3.49-0.57-5.43-0.79c-3.6-0.41-7.69-0.87-11.96-2.44
				c-2.25-0.76-4.52-1.53-6.89-2.32l-4.94-1.66l-0.17-0.04c-2.2-0.51-4.42-1.83-6.76-3.23c-1.41-0.84-2.87-1.71-4.44-2.48
				c-1.17-0.69-2.38-1.33-3.54-1.95c-2.9-1.55-5.65-3.01-7.81-5.17l-0.12-0.12l-0.13-0.1c-2.12-1.77-4.26-3.56-6.4-5.36
				c-1.6-1.34-3.21-2.69-4.82-4.03c-1.92-2.29-3.85-4.58-5.76-6.85l-3.75-4.46l-0.11-0.11c-2.16-2.16-3.62-4.91-5.18-7.81
				c-0.62-1.16-1.26-2.36-1.96-3.53c-0.78-1.59-1.66-3.05-2.5-4.47c-1.4-2.33-2.71-4.53-3.2-6.7l-0.04-0.18l-3.99-11.78
				c-1.59-4.26-2.05-8.39-2.46-12.03c-0.22-1.95-0.43-3.79-0.79-5.43l-0.98-6.8l-7.16,0.7c0,0,0.13,2.57,0.42,7.04l0.45,8.01
				l0.02,0.54c0.13,3.01,0.29,6.74,1.71,10.67c0.9,3.18,1.87,6.59,2.89,10.17l0.46,1.61c0.71,3.6,2.42,6.69,4.06,9.69
				c0.67,1.22,1.36,2.47,1.96,3.72l0.06,0.12l0.07,0.12c0.63,1.1,1.23,2.25,1.86,3.46c1.72,3.33,3.51,6.77,6.37,9.81
				c3.18,3.92,6.42,7.9,9.66,11.89l0.24,0.29l0.29,0.24c2.14,1.74,4.28,3.48,6.41,5.21c1.83,1.49,3.66,2.98,5.48,4.45
				c3.03,2.86,6.47,4.63,9.81,6.35c1.22,0.63,2.38,1.23,3.49,1.86l0.11,0.06l0.12,0.06c1.22,0.59,2.46,1.27,3.66,1.93
				c3.02,1.66,6.14,3.38,9.74,4.08l1.87,0.53C139.03,336.35,142.33,337.29,145.42,338.17z M137.92,307.64
				c2.95,0.98,5.67,1.03,7.67,1.06c0.81,0.02,1.58,0.03,2.07,0.11l0.16,0.02l0.16,0.01c2.24,0.14,3.52,0.21,3.52,0.21l0.71-7.16
				l-3.35-0.47c-0.88-0.18-1.81-0.29-2.79-0.4c-1.71-0.19-3.65-0.41-5.62-1.11c-1.89-0.62-3.84-1.26-5.91-1.93l-0.16-0.05
				l-0.16-0.04c-0.88-0.2-1.92-0.81-3.03-1.46c-0.66-0.39-1.35-0.79-2.1-1.18c-0.59-0.35-1.2-0.68-1.81-1.02
				c-1.32-0.72-2.56-1.39-3.45-2.28l-0.11-0.11l-5.62-4.75l-4.74-5.59l-0.11-0.11c-0.92-0.9-1.61-2.17-2.34-3.52
				c-0.32-0.58-0.63-1.16-0.96-1.72c-0.39-0.76-0.8-1.46-1.2-2.13c-0.65-1.09-1.26-2.12-1.44-2.98l-0.04-0.18l-0.06-0.18
				c-0.67-2.03-1.3-3.96-1.88-5.75l-0.04-0.11c-0.7-1.95-0.92-3.92-1.12-5.65c-0.11-0.99-0.22-1.92-0.4-2.8
				c-0.3-2.14-0.49-3.39-0.49-3.39l-7.16,0.72c0,0,0.07,1.29,0.2,3.53l0.01,0.18l0.03,0.17c0.08,0.5,0.09,1.28,0.11,2.1
				c0.04,1.96,0.09,4.63,1.04,7.55c0.26,0.91,0.54,1.84,0.83,2.82c0.29,0.97,0.58,1.97,0.88,3c0.42,1.94,1.33,3.59,2.13,5.04
				c0.37,0.66,0.71,1.29,1,1.91l0.06,0.13l0.07,0.13c0.3,0.53,0.58,1.08,0.86,1.64c0.86,1.69,1.83,3.61,3.42,5.31l4.98,6.21
				l6.22,4.99c1.7,1.57,3.59,2.53,5.27,3.38c0.57,0.29,1.14,0.57,1.68,0.88l0.12,0.07l0.12,0.06c0.6,0.28,1.2,0.62,1.84,0.97
				c1.48,0.82,3.16,1.75,5.13,2.16C133.18,306.24,137.02,307.37,137.92,307.64z M202.86,119.8c-44.94,0-81.51,36.56-81.51,81.51
				c0,44.94,36.56,81.5,81.51,81.5c44.94,0,81.5-36.56,81.5-81.5C284.36,156.37,247.8,119.8,202.86,119.8z M343.51,115.06
				c1.13,2.54,2.37,4.96,3.58,7.3c1.86,3.62,3.62,7.05,4.77,10.51l0.05,0.14l0.06,0.14c2.47,5.79,4.37,11.42,5.64,16.72l0.03,0.12
				l0.04,0.12c1.48,4.7,2.32,9.07,3.14,13.3l0.28,1.45c0.93,4.13,1.52,8.04,1.69,11.29l0.01,0.18c0.7,6.67,1.11,10.49,1.11,10.49
				l7.18-0.3c0,0,0.1-3.83,0.28-10.53c0.18-3.7,0-7.96-0.55-12.58l-0.05-0.69c-0.36-4.61-0.78-9.84-2.2-15.42
				c-1.06-5.93-2.73-12.14-4.95-18.46c-1.41-5.17-3.73-10.24-5.98-15.14c-0.71-1.56-1.44-3.13-2.14-4.73l-0.09-0.21l-0.12-0.19
				c-1.02-1.71-2-3.43-3.04-5.25c-2.69-4.72-5.47-9.6-9.01-14.16c-3.45-5.23-7.63-9.98-11.67-14.57c-1.09-1.24-2.19-2.49-3.27-3.74
				l-0.15-0.17l-0.17-0.15c-1.12-1.02-2.24-2.04-3.36-3.07c-4.61-4.24-9.38-8.62-14.67-12.26c-4.48-3.64-9.29-6.52-13.95-9.3
				c-1.8-1.08-3.51-2.09-5.19-3.15l-0.19-0.12l-0.21-0.1c-1.58-0.73-3.13-1.49-4.67-2.23c-5.1-2.47-9.92-4.81-15.08-6.31
				c-3.13-1.08-6.18-2.11-9.15-3.12l-0.17-0.06l-0.17-0.04c-1.74-0.41-3.45-0.81-5.11-1.21l-3.64-0.86
				c-5.56-1.56-10.76-2.08-15.35-2.55l-0.75-0.08c-3.9-0.54-7.55-0.81-10.85-0.81c-0.61,0-1.2,0.01-1.78,0.03
				c-6.7,0.03-10.51,0.06-10.51,0.06l-0.43,7.17l10.54,1.35l0.09,0.01c3.32,0.25,7.1,0.9,11.24,1.93l1.58,0.34
				c4,0.85,8.53,1.82,13.15,3.38l0.11,0.04c1.81,0.55,3.68,1.11,5.59,1.7l2.66,0.81l8.64,3.59l0.08,0.03
				c3.43,1.23,6.82,3.06,10.41,4.99c2.32,1.25,4.72,2.54,7.24,3.72c1.67,1.11,3.4,2.19,5.07,3.24c4.15,2.61,8.45,5.3,12.23,8.54
				l0.12,0.1l0.13,0.09c4.34,3.09,8.22,6.78,12.32,10.7c1.29,1.23,2.58,2.46,3.89,3.68c1.12,1.25,2.25,2.48,3.38,3.72
				c3.91,4.26,7.6,8.29,10.67,12.78l0.09,0.13l0.1,0.12c3.23,3.94,5.88,8.38,8.45,12.67C341.52,111.8,342.51,113.45,343.51,115.06z
				 M328.42,164.31l7.16-0.65c0,0-0.12-2.55-0.33-7c-0.12-2.25-0.24-4.94-0.38-8.04l-0.01-0.44c-0.09-3.04-0.19-6.81-1.6-10.79
				c-1.01-3.67-2.08-7.63-3.21-11.81c-0.67-3.63-2.36-6.76-4-9.79c-0.65-1.2-1.32-2.45-1.9-3.68l-0.05-0.11l-0.06-0.11
				c-0.61-1.09-1.18-2.23-1.79-3.43c-1.69-3.37-3.45-6.86-6.31-9.93c-2.42-3.05-4.88-6.14-7.35-9.24l-2.42-3.04L305.88,86
				c-3.95-3.27-7.9-6.55-11.76-9.77c-3-2.9-6.44-4.72-9.75-6.47c-1.22-0.64-2.36-1.25-3.46-1.89l-0.11-0.07l-0.12-0.06
				c-1.21-0.6-2.44-1.29-3.63-1.96c-3-1.69-6.1-3.44-9.69-4.18l-11.68-3.45c-3.83-1.44-7.56-1.65-10.57-1.82l-0.72-0.04l-8.03-0.53
				c-4.44-0.31-6.99-0.48-6.99-0.48l-0.79,7.15c0,0,2.48,0.39,6.8,1.05c1.64,0.38,3.46,0.6,5.38,0.84
				c3.61,0.45,7.69,0.96,11.98,2.58c2.57,0.89,11.77,4.1,11.77,4.1l0.17,0.04c2.18,0.53,4.37,1.86,6.69,3.27
				c1.42,0.86,2.88,1.75,4.47,2.54c1.16,0.71,2.36,1.36,3.51,2c2.88,1.58,5.61,3.07,7.74,5.25l0.11,0.11c0,0,3.18,2.72,4.72,4.03
				c2.17,1.85,4.35,3.71,6.52,5.58c1.9,2.32,3.81,4.63,5.7,6.94l3.68,4.48l0.11,0.11c2.17,2.22,3.62,5.01,5.16,7.97
				c0.59,1.13,1.2,2.3,1.85,3.45c0.76,1.6,1.63,3.08,2.46,4.51c1.37,2.34,2.66,4.56,3.13,6.72l0.04,0.18l3.86,11.82
				c1.54,4.28,1.96,8.41,2.33,12.06c0.2,1.95,0.39,3.8,0.74,5.45L328.42,164.31z M296.86,143.74l7.17-0.65
				c0-0.01-0.06-1.27-0.16-3.48l-0.01-0.19l-0.03-0.19c-0.08-0.51-0.08-1.29-0.09-2.12c-0.02-1.96-0.04-4.63-0.97-7.54
				c-0.28-1.02-1.64-5.84-1.64-5.84c-0.4-1.97-1.3-3.63-2.1-5.1c-0.35-0.65-0.68-1.27-0.96-1.88l-0.06-0.12l-0.06-0.12
				c-0.29-0.53-0.56-1.09-0.84-1.64c-0.84-1.71-1.79-3.64-3.37-5.36l-4.91-6.26l-6.18-5.07c-1.69-1.59-3.6-2.58-5.28-3.46
				c-0.55-0.29-1.1-0.57-1.63-0.88l-0.12-0.07l-0.13-0.06c-0.6-0.29-1.21-0.63-1.86-1c-1.46-0.82-3.1-1.75-5.04-2.19
				c-2.04-0.62-3.98-1.22-5.76-1.77c-2.89-0.98-5.58-1.06-7.55-1.12c-0.84-0.03-1.63-0.05-2.13-0.14l-0.18-0.03l-0.18-0.01
				c-2.24-0.16-3.52-0.24-3.52-0.24l-0.79,7.15c0,0,1.23,0.19,3.36,0.52c0.87,0.19,1.8,0.3,2.77,0.42c1.71,0.21,3.66,0.45,5.62,1.17
				l0.1,0.03c1.08,0.36,2.21,0.74,3.38,1.14l2.57,0.87l0.17,0.04c0.9,0.21,1.9,0.82,3.05,1.52c0.64,0.39,1.31,0.79,2.04,1.18
				c0.57,0.35,1.16,0.68,1.76,1.01c1.33,0.73,2.59,1.43,3.47,2.34l0.11,0.11l5.55,4.81l4.7,5.65l0.12,0.12
				c0.9,0.9,1.57,2.18,2.29,3.52c0.31,0.59,0.62,1.17,0.95,1.73c0.39,0.79,0.8,1.51,1.21,2.21c0.62,1.08,1.21,2.09,1.38,2.92
				l0.04,0.18l0.05,0.17c0.42,1.34,0.82,2.63,1.21,3.86l0.61,1.95c0.69,2.03,0.89,3.98,1.07,5.71c0.11,1.01,0.21,1.96,0.39,2.86
				C296.7,142.52,296.86,143.74,296.86,143.74z"/>
			<circle class="st0" cx="203.04" cy="201.25" r="10.38"/>
			<path class="st0" d="M202.86,208.09c-3.74,0-6.78-3.04-6.78-6.78s3.04-6.78,6.78-6.78s6.78,3.04,6.78,6.78
				S206.6,208.09,202.86,208.09z"/>
		</g>
	</g>
</g>
</svg>
