<?xml version="1.0" encoding="utf-8"?>
<!-- Generator: Adobe Illustrator 25.2.0, SVG Export Plug-In . SVG Version: 6.00 Build 0)  -->
<svg version="1.1" id="Layer_1" xmlns="http://www.w3.org/2000/svg" xmlns:xlink="http://www.w3.org/1999/xlink" x="0px" y="0px"
	 viewBox="0 0 612 612" style="enable-background:new 0 0 612 612;" xml:space="preserve">
<style type="text/css">
	.st0{fill:#FFFFFF;}
</style>
<g>
	<g>
		<g>
			<path class="st0" d="M306.43,1.33C138.23,1.33,1.89,137.67,1.89,305.86S138.23,610.4,306.43,610.4s304.54-136.35,304.54-304.54
				S474.62,1.33,306.43,1.33z M148.05,391.82c0.74,3.33,0.61,8.44,2.58,13.94c0.89,2.77,1.87,5.76,2.92,8.91
				c0.72,3.29,3.02,6.14,4.63,9.37c1.87,3.11,3.31,6.65,6.07,9.37l7.45,8.79l8.83,7.48c2.72,2.74,6.26,4.15,9.36,6.04
				c3.24,1.61,6.08,3.89,9.39,4.63c3.17,1.02,6.17,2.01,8.96,2.92c5.52,1.96,10.52,1.83,13.87,2.57c3.41,0.47,5.36,0.75,5.36,0.75
				s-1.96-0.11-5.39-0.33c-3.37-0.52-8.52,0.29-14.2-1.61c-2.87-0.86-5.96-1.74-9.22-2.71c-3.41-0.65-6.36-2.87-9.74-4.46
				c-3.24-1.83-6.93-3.2-9.83-5.94l-9.28-7.46l-7.45-9.29c-2.74-2.86-4.13-6.55-5.96-9.8c-1.56-3.39-3.81-6.32-4.49-9.74
				c-0.96-3.31-1.89-6.41-2.73-9.28c-1.89-5.68-1.06-10.74-1.61-14.13c-0.21-3.44-0.31-5.41-0.31-5.41S147.57,388.42,148.05,391.82z
				 M99.81,365.93c1.53,6.65,1.2,16.89,5.28,27.87c1.85,5.49,3.88,11.43,6,17.74c1.48,6.54,6.2,12.17,9.33,18.66
				c3.72,6.21,6.52,13.33,11.97,18.79c4.89,5.82,9.87,11.73,14.83,17.64c5.94,4.96,11.85,9.94,17.69,14.81
				c5.46,5.46,12.56,8.24,18.8,11.95c6.5,3.16,12.11,7.81,18.68,9.33c6.33,2.13,12.32,4.14,17.85,6.01
				c11,4.04,21.04,3.72,27.74,5.24c6.82,0.97,10.72,1.54,10.72,1.54s-3.91-0.22-10.78-0.61c-3.46-0.2-7.65-0.44-12.45-0.72
				c-4.85-0.22-10.35-0.34-15.98-2.42c-5.74-1.64-11.95-3.4-18.52-5.25c-6.85-1.26-12.82-5.63-19.55-8.87
				c-6.48-3.72-13.87-6.53-19.61-12.02c-6.11-4.95-12.3-10.01-18.52-15.04c-5.04-6.2-10.09-12.4-15.04-18.51
				c-5.5-5.75-8.34-13.12-12.06-19.58c-3.22-6.74-7.59-12.68-8.9-19.59c-1.87-6.59-3.65-12.86-5.28-18.61
				c-2.09-5.67-2.2-11.08-2.41-15.89c-0.26-4.77-0.5-8.95-0.7-12.4c-0.43-6.86-0.64-10.8-0.64-10.8S98.83,359.09,99.81,365.93z
				 M267.43,561.65c-5.22,0.2-11.52-0.09-18.72-0.98c-7.24-0.66-15.48-1.32-24.15-3.65c-4.39-1-8.96-2.02-13.68-3.08
				c-4.61-1.5-9.36-3.08-14.26-4.7c-10-2.76-19.65-7.95-29.94-12.62c-9.63-5.89-20.09-11.21-29.39-18.62
				c-9.89-6.63-18.61-15.04-27.65-23.02c-7.99-9.07-16.41-17.78-23.05-27.65c-7.41-9.3-12.78-19.75-18.68-29.35
				c-4.66-10.29-9.83-19.96-12.61-29.93c-3.54-9.72-6.15-19.1-7.8-27.94c-2.33-8.64-3-16.96-3.65-24.2
				c-0.94-7.27-1.22-13.51-1-18.69c0.17-10.38,0.25-16.3,0.25-16.3s0.69,5.87,1.89,16.16c0.33,5.17,1.28,11.39,2.94,18.33
				c1.43,6.97,2.91,14.8,5.63,23.14c2.15,8.5,5.26,17.41,9.28,26.56c3.26,9.46,9.07,18.35,13.54,28.22
				c5.89,9.11,11.2,19.04,18.52,27.78c6.53,9.33,14.8,17.47,22.57,25.97c8.55,7.76,16.66,16.03,26.01,22.55
				c8.76,7.32,18.68,12.61,27.78,18.5c9.87,4.46,18.78,10.24,28.24,13.5c4.63,1.87,9.12,3.7,13.5,5.46c4.5,1.33,8.87,2.6,13.07,3.83
				c8.33,2.71,16.22,4.2,23.22,5.62c6.98,1.66,13.14,2.61,18.28,2.95c10.26,1.19,16.14,1.89,16.14,1.89S277.8,561.48,267.43,561.65z
				 M306.43,426.09c-66.4,0-120.23-53.83-120.23-120.22s53.83-120.23,120.23-120.23c66.4,0,120.22,53.83,120.22,120.23
				C426.65,372.26,372.82,426.09,306.43,426.09z M456.3,210.92c-0.72-3.33-0.55-8.43-2.44-13.96c-0.87-2.79-1.83-5.78-2.81-8.96
				c-0.67-3.29-2.97-6.15-4.53-9.41c-1.84-3.13-3.23-6.69-5.96-9.43l-7.38-8.88l-8.72-7.56c-2.69-2.78-6.24-4.24-9.33-6.13
				c-3.22-1.68-6.02-3.97-9.34-4.74c-3.17-1.07-6.15-2.09-8.93-3.02c-5.5-2.01-10.5-1.94-13.85-2.7c-3.39-0.51-5.35-0.82-5.35-0.82
				s1.96,0.13,5.4,0.38c3.37,0.59,8.52-0.17,14.18,1.76c2.84,0.87,5.94,1.83,9.2,2.82c3.38,0.69,6.32,2.95,9.67,4.55
				c3.24,1.86,6.92,3.3,9.76,6.04l9.22,7.56l7.34,9.36c2.72,2.89,4.06,6.61,5.85,9.87c1.54,3.39,3.73,6.34,4.37,9.78
				c0.93,3.31,1.81,6.41,2.62,9.3c1.83,5.7,0.95,10.74,1.46,14.16c0.15,3.45,0.25,5.4,0.25,5.4S456.74,214.34,456.3,210.92z
				 M504.26,237.31c-1.46-6.68-1.03-16.92-4.99-27.94c-1.8-5.52-3.75-11.47-5.81-17.81c-1.42-6.54-6.07-12.22-9.13-18.73
				c-3.62-6.27-6.37-13.39-11.78-18.92c-4.82-5.87-9.75-11.84-14.63-17.8c-5.88-5.05-11.76-10.05-17.55-15
				c-5.4-5.5-12.47-8.37-18.65-12.16c-6.49-3.2-12.05-7.91-18.6-9.5c-6.3-2.2-12.26-4.28-17.77-6.2
				c-10.98-4.15-20.99-3.96-27.7-5.54c-6.79-1.04-10.69-1.65-10.69-1.65s3.93,0.26,10.78,0.74c3.46,0.23,7.64,0.5,12.43,0.82
				c4.85,0.28,10.36,0.44,15.97,2.59c5.72,1.69,11.91,3.51,18.47,5.45c6.82,1.34,12.76,5.76,19.44,9.06
				c6.44,3.78,13.8,6.68,19.48,12.24c6.03,5.02,12.18,10.13,18.33,15.23c4.98,6.26,9.99,12.53,14.86,18.68
				c5.47,5.78,8.22,13.18,11.86,19.7c3.18,6.77,7.48,12.74,8.7,19.65c1.79,6.63,3.48,12.88,5.08,18.68
				c2.04,5.68,2.09,11.14,2.23,15.9c0.22,4.8,0.41,8.98,0.59,12.42c0.33,6.87,0.5,10.79,0.5,10.79S505.18,244.14,504.26,237.31z
				 M560.48,282.9c0,0-0.63-5.89-1.71-16.17c-0.28-5.17-1.17-11.39-2.74-18.35c-1.36-7-2.76-14.83-5.4-23.21
				c-2.04-8.52-5.06-17.46-9-26.68c-3.15-9.48-8.87-18.44-13.23-28.35c-5.77-9.17-10.98-19.13-18.22-27.96
				c-6.45-9.41-14.63-17.63-22.31-26.21c-8.45-7.83-16.46-16.19-25.77-22.81c-8.67-7.41-18.55-12.8-27.59-18.81
				c-9.81-4.56-18.68-10.43-28.07-13.81c-4.63-1.91-9.1-3.78-13.46-5.59c-4.5-1.37-8.85-2.69-13.01-3.95
				c-8.32-2.81-16.17-4.37-23.16-5.88c-6.97-1.73-13.11-2.74-18.27-3.13c-10.25-1.31-16.11-2.06-16.11-2.06s5.91-0.05,16.28-0.1
				c5.23-0.17,11.52,0.17,18.72,1.17c7.22,0.74,15.46,1.48,24.12,3.91c4.37,1.03,8.91,2.12,13.63,3.22
				c4.61,1.56,9.36,3.17,14.22,4.85c9.96,2.87,19.58,8.15,29.81,12.92c9.54,6,19.95,11.43,29.17,18.96
				c9.83,6.73,18.46,15.21,27.42,23.32c7.87,9.14,16.21,17.92,22.74,27.87c7.32,9.36,12.56,19.9,18.36,29.57
				c4.54,10.32,9.6,20.04,12.3,30.07c3.44,9.74,5.94,19.13,7.51,28.01c2.23,8.7,2.8,16.99,3.38,24.23
				c0.86,7.27,1.07,13.52,0.82,18.71C560.63,276.99,560.48,282.9,560.48,282.9z"/>
			<circle class="st0" cx="306.43" cy="305.86" r="16.02"/>
		</g>
	</g>
</g>
</svg>
